<?xml version="1.0" encoding="UTF-8" standalone="no"?>
<!-- Generator: Adobe Illustrator 18.0.0, SVG Export Plug-In . SVG Version: 6.00 Build 0)  -->

<svg
   xmlns:dc="http://purl.org/dc/elements/1.1/"
   xmlns:cc="http://creativecommons.org/ns#"
   xmlns:rdf="http://www.w3.org/1999/02/22-rdf-syntax-ns#"
   xmlns:svg="http://www.w3.org/2000/svg"
   xmlns="http://www.w3.org/2000/svg"
   xmlns:sodipodi="http://sodipodi.sourceforge.net/DTD/sodipodi-0.dtd"
   xmlns:inkscape="http://www.inkscape.org/namespaces/inkscape"
   version="1.1"
   id="Capa_1"
   x="0px"
   y="0px"
   viewBox="0 0 464.927 464.927"
   style="enable-background:new 0 0 464.927 464.927;"
   xml:space="preserve"
   width="512px"
   height="512px"
   inkscape:version="0.91 r13725"
   sodipodi:docname="icon.svg"><metadata
     id="metadata47"><rdf:RDF><cc:Work
         rdf:about=""><dc:format>image/svg+xml</dc:format><dc:type
           rdf:resource="http://purl.org/dc/dcmitype/StillImage" /></cc:Work></rdf:RDF></metadata><defs
     id="defs45" /><sodipodi:namedview
     pagecolor="#ffffff"
     bordercolor="#666666"
     borderopacity="1"
     objecttolerance="10"
     gridtolerance="10"
     guidetolerance="10"
     inkscape:pageopacity="0"
     inkscape:pageshadow="2"
     inkscape:window-width="1875"
     inkscape:window-height="1056"
     id="namedview43"
     showgrid="false"
     inkscape:zoom="1.3037281"
     inkscape:cx="216.43625"
     inkscape:cy="214.83171"
     inkscape:window-x="45"
     inkscape:window-y="24"
     inkscape:window-maximized="1"
     inkscape:current-layer="Capa_1" /><g
     id="g3"
     transform="matrix(0.8505,0,0,0.8505,36.32257,33.184017)"
     inkscape:transform-center-x="6.268596"
     inkscape:transform-center-y="10.44766"><path
       d="M 424.32,0 40.605,0 C 18.176,0 0.001,18.178 0.001,40.605 l 0,383.716 c 0,22.428 18.175,40.605 40.605,40.605 l 383.714,0 c 22.43,0 40.607,-18.178 40.607,-40.605 l 0,-176.511 0,-124.556 0,-82.649 C 464.926,18.178 446.75,0 424.32,0 Z m 9.611,424.321 c 0,5.297 -4.315,9.61 -9.611,9.61 l -145.516,0 0,-145.516 c 0,-5.297 4.313,-9.611 9.61,-9.611 l 145.517,0 0,145.517 z M 288.414,247.81 c -22.429,0 -40.605,18.177 -40.605,40.605 l 0,145.517 -93.568,0 0,-270.074 c 0,-5.297 4.305,-9.609 9.602,-9.609 l 270.088,0 0,93.561 -145.517,0 z M 163.843,123.254 c -22.422,0 -40.597,18.177 -40.597,40.604 l 0,270.073 -82.641,0 c -5.297,0 -9.61,-4.313 -9.61,-9.61 l 0,-383.716 c 0,-5.297 4.313,-9.61 9.61,-9.61 l 383.715,0 c 5.297,0 9.611,4.314 9.611,9.61 l 0,82.648 -270.088,0 z"
       id="path5"
       inkscape:connector-curvature="0"
       style="fill:#ffffff" /><circle
       cx="68.353996"
       cy="67.014999"
       r="19.372"
       id="circle7"
       style="fill:#ffffff" /><circle
       cx="190.397"
       cy="188.483"
       r="19.372"
       id="circle9"
       style="fill:#ffffff" /><circle
       cx="313.461"
       cy="313.46301"
       r="19.372"
       id="circle11"
       style="fill:#ffffff" /></g><g
     id="g13"
     transform="matrix(0.9,0,0,0.9,12.712948,33.779753)" /><g
     id="g15"
     transform="matrix(0.9,0,0,0.9,12.712948,33.779753)" /><g
     id="g17"
     transform="matrix(0.9,0,0,0.9,12.712948,33.779753)" /><g
     id="g19"
     transform="matrix(0.9,0,0,0.9,12.712948,33.779753)" /><g
     id="g21"
     transform="matrix(0.9,0,0,0.9,12.712948,33.779753)" /><g
     id="g23"
     transform="matrix(0.9,0,0,0.9,12.712948,33.779753)" /><g
     id="g25"
     transform="matrix(0.9,0,0,0.9,12.712948,33.779753)" /><g
     id="g27"
     transform="matrix(0.9,0,0,0.9,12.712948,33.779753)" /><g
     id="g29"
     transform="matrix(0.9,0,0,0.9,12.712948,33.779753)" /><g
     id="g31"
     transform="matrix(0.9,0,0,0.9,12.712948,33.779753)" /><g
     id="g33"
     transform="matrix(0.9,0,0,0.9,12.712948,33.779753)" /><g
     id="g35"
     transform="matrix(0.9,0,0,0.9,12.712948,33.779753)" /><g
     id="g37"
     transform="matrix(0.9,0,0,0.9,12.712948,33.779753)" /><g
     id="g39"
     transform="matrix(0.9,0,0,0.9,12.712948,33.779753)" /><g
     id="g41"
     transform="matrix(0.9,0,0,0.9,12.712948,33.779753)" /></svg>